<?xml version="1.0" standalone="no"?>
<!DOCTYPE svg PUBLIC "-//W3C//DTD SVG 20010904//EN"
 "http://www.w3.org/TR/2001/REC-SVG-20010904/DTD/svg10.dtd">
<svg version="1.0" xmlns="http://www.w3.org/2000/svg"
 width="260.000000pt" height="260.000000pt" viewBox="0 0 260.000000 260.000000"
 preserveAspectRatio="xMidYMid meet">
<metadata>
Created by potrace 1.11, written by Peter Selinger 2001-2013
</metadata>
<g transform="translate(0.000000,260.000000) scale(0.100000,-0.100000)"
fill="#000000" stroke="none">
<path d="M757 1720 c-107 -27 -207 -113 -258 -223 -33 -70 -34 -75 -34 -203
l0 -130 38 -76 c45 -92 112 -157 195 -189 101 -40 326 -29 400 20 11 6 6 23
-22 78 l-35 70 -53 -18 c-141 -49 -247 -8 -306 119 -22 48 -24 64 -20 145 3
68 10 103 25 132 26 48 78 100 116 114 40 15 124 13 181 -4 27 -8 52 -15 56
-15 4 0 20 30 36 66 31 75 32 73 -51 100 -59 19 -214 27 -268 14z"/>
<path d="M1570 1300 l0 -410 286 0 286 0 -7 53 c-12 94 6 86 -193 89 l-177 3
-3 338 -2 337 -95 0 -95 0 0 -410z"/>
</g>
</svg>
